<svg width="175" height="48" viewBox="0 0 175 48" fill="none" xmlns="http://www.w3.org/2000/svg">
<path
        d="M48.4748 26.7649C47.1574 26.7649 45.9642 26.4307 44.895 25.7625C43.845 25.0943 43.0145 24.1684 42.4035 22.9847C41.8117 21.7819 41.5157 20.4263 41.5157 18.9181C41.5157 17.3907 41.8117 16.0352 42.4035 14.8515C43.0145 13.6678 43.845 12.7323 44.895 12.045C45.9451 11.3577 47.1383 11.014 48.4748 11.014C49.1812 11.014 49.8589 11.1286 50.508 11.3577C51.1763 11.5677 51.7681 11.8636 52.2836 12.2454C52.7991 12.6273 53.2191 13.0569 53.5437 13.5342C53.8682 13.9924 54.0591 14.4697 54.1164 14.966L53.0855 15.1665V5.28644H57.1234V26.4785H53.2859L53.1141 22.9847L53.916 23.0992C53.8969 23.5574 53.7346 24.0061 53.4291 24.4452C53.1236 24.8843 52.7132 25.2852 52.1977 25.648C51.7013 25.9916 51.1285 26.2685 50.4794 26.4785C49.8494 26.6694 49.1812 26.7649 48.4748 26.7649ZM49.3625 23.3856C50.1453 23.3856 50.8135 23.1947 51.3672 22.8128C51.9399 22.431 52.3886 21.906 52.7132 21.2377C53.0377 20.5695 53.2 19.7963 53.2 18.9181C53.2 18.0208 53.0377 17.238 52.7132 16.5698C52.3886 15.8825 51.9399 15.3574 51.3672 14.9947C50.8135 14.6128 50.1453 14.4219 49.3625 14.4219C48.6179 14.4219 47.9593 14.6128 47.3865 14.9947C46.8138 15.3574 46.3651 15.8825 46.0405 16.5698C45.7351 17.238 45.5823 18.0208 45.5823 18.9181C45.5823 19.7963 45.7351 20.5695 46.0405 21.2377C46.3651 21.906 46.8138 22.431 47.3865 22.8128C47.9593 23.1947 48.6179 23.3856 49.3625 23.3856Z" fill="currentColor"/>
<path
        d="M83.683 26.7649C83.0148 26.7649 82.3657 26.6694 81.7357 26.4785C81.1056 26.2685 80.5329 26.0012 80.0174 25.6766C79.5019 25.3521 79.0723 24.9798 78.7287 24.5597C78.385 24.1397 78.1655 23.7006 78.07 23.2424L78.9864 22.8701L78.8146 26.4212H74.9485V5.28644H79.0437V14.8515L78.2418 14.5365C78.3564 14.0783 78.5759 13.6392 78.9005 13.2191C79.2251 12.7991 79.6355 12.4268 80.1319 12.1023C80.6283 11.7586 81.1725 11.4913 81.7643 11.3004C82.3562 11.1095 82.9575 11.014 83.5685 11.014C84.9049 11.014 86.0886 11.3577 87.1196 12.045C88.1506 12.7132 88.962 13.6487 89.5538 14.8515C90.1648 16.0352 90.4702 17.3812 90.4702 18.8894C90.4702 20.4168 90.1743 21.7723 89.5824 22.956C88.9906 24.1397 88.1792 25.0752 87.1482 25.7625C86.1364 26.4307 84.9813 26.7649 83.683 26.7649ZM82.7094 23.2997C83.473 23.2997 84.1317 23.1183 84.6854 22.7556C85.2581 22.3737 85.7068 21.8582 86.0314 21.2091C86.3559 20.5409 86.5182 19.7677 86.5182 18.8894C86.5182 18.0303 86.3559 17.2762 86.0314 16.627C85.7259 15.9588 85.2868 15.4433 84.714 15.0806C84.1412 14.6988 83.473 14.5078 82.7094 14.5078C81.9648 14.5078 81.3061 14.6988 80.7333 15.0806C80.1606 15.4433 79.7119 15.9588 79.3874 16.627C79.0628 17.2762 78.9005 18.0303 78.9005 18.8894C78.9005 19.7677 79.0628 20.5409 79.3874 21.2091C79.7119 21.8582 80.1606 22.3737 80.7333 22.7556C81.3061 23.1183 81.9648 23.2997 82.7094 23.2997Z" fill="currentColor"/>
<path
        d="M65.8203 26.7649C64.4266 26.7649 63.1761 26.5358 62.0687 26.0776C60.9805 25.6194 60.0927 24.9702 59.4054 24.1302L61.9542 21.9537C62.546 22.5837 63.1951 23.042 63.9015 23.3283C64.627 23.5956 65.3621 23.7293 66.1067 23.7293C66.374 23.7293 66.6221 23.7006 66.8513 23.6434C67.0804 23.567 67.2808 23.4715 67.4526 23.357C67.6245 23.2233 67.7486 23.0706 67.8249 22.8988C67.9204 22.7269 67.9681 22.5265 67.9681 22.2974C67.9681 21.8773 67.7963 21.5528 67.4526 21.3237C67.2999 21.2091 67.0135 21.085 66.5935 20.9514C66.1926 20.7987 65.6771 20.6364 65.0471 20.4645C64.0734 20.2163 63.2524 19.93 62.5842 19.6054C61.916 19.2618 61.3719 18.8704 60.9518 18.4313C60.6082 18.0685 60.3409 17.6485 60.15 17.1712C59.9782 16.6939 59.8922 16.1689 59.8922 15.5961C59.8922 14.6797 60.1595 13.8778 60.6941 13.1905C61.2287 12.5032 61.9351 11.9686 62.8133 11.5868C63.7106 11.205 64.6843 11.014 65.7344 11.014C66.5171 11.014 67.2713 11.1095 67.9968 11.3004C68.7414 11.4913 69.4287 11.7682 70.0587 12.1309C70.7078 12.4746 71.271 12.885 71.7483 13.3623L69.5718 15.7966C69.2282 15.4529 68.8368 15.157 68.3977 14.9088C67.9586 14.6415 67.5195 14.4315 67.0804 14.2788C66.6412 14.1069 66.2403 14.021 65.8776 14.021C65.553 14.021 65.2571 14.0497 64.9898 14.1069C64.7416 14.1642 64.5316 14.2597 64.3598 14.3933C64.1879 14.5079 64.0543 14.6511 63.9588 14.8229C63.8825 14.9947 63.8443 15.1856 63.8443 15.3956C63.8443 15.6056 63.892 15.8061 63.9875 15.997C64.102 16.1689 64.2547 16.3311 64.4457 16.4839C64.6366 16.5984 64.9421 16.7321 65.3621 16.8848C65.8012 17.0375 66.3644 17.2094 67.0517 17.4003C67.9681 17.6485 68.7414 17.9253 69.3714 18.2308C70.0014 18.5363 70.5074 18.8895 70.8892 19.2904C71.2328 19.634 71.4715 20.035 71.6051 20.4932C71.7579 20.9323 71.8342 21.4096 71.8342 21.9251C71.8342 22.8606 71.567 23.7006 71.0324 24.4452C70.5169 25.1707 69.801 25.7435 68.8845 26.1635C67.9872 26.5644 66.9658 26.7649 65.8203 26.7649Z" fill="currentColor"/>
<path
        d="M109.161 26.4785V11.3291H113.085L113.199 14.4219L112.397 14.7656C112.588 14.0783 112.961 13.4578 113.514 12.9041C114.068 12.3314 114.727 11.8732 115.49 11.5295C116.254 11.1859 117.046 11.014 117.867 11.014C119.013 11.014 119.967 11.2431 120.731 11.7013C121.514 12.1596 122.096 12.8564 122.478 13.7919C122.879 14.7083 123.079 15.8538 123.079 17.2285V26.4785H119.013V17.5148C119.013 16.8275 118.917 16.2548 118.726 15.7966C118.536 15.3384 118.249 15.0043 117.867 14.7942C117.485 14.5842 116.999 14.4888 116.407 14.5079C115.949 14.5079 115.529 14.5842 115.147 14.737C114.765 14.8706 114.421 15.0711 114.116 15.3384C113.829 15.6056 113.61 15.9111 113.457 16.2548C113.304 16.5984 113.228 16.9803 113.228 17.4003V26.4785H111.195C110.775 26.4785 110.393 26.4785 110.049 26.4785C109.705 26.4785 109.41 26.4785 109.161 26.4785Z" fill="currentColor"/>
<path
        d="M131.74 26.7649C130.423 26.7649 129.229 26.4307 128.16 25.7625C127.11 25.0943 126.28 24.1684 125.669 22.9847C125.077 21.7819 124.781 20.4263 124.781 18.9181C124.781 17.3907 125.077 16.0352 125.669 14.8515C126.28 13.6678 127.11 12.7323 128.16 12.045C129.21 11.3577 130.403 11.014 131.74 11.014C132.446 11.014 133.124 11.1286 133.773 11.3577C134.441 11.5677 135.033 11.8636 135.549 12.2454C136.064 12.6273 136.484 13.0569 136.809 13.5342C137.133 13.9924 137.324 14.4697 137.382 14.966L136.351 15.1665V5.28644H140.389V26.4785H136.551L136.379 22.9847L137.181 23.0992C137.162 23.5574 137 24.0061 136.694 24.4452C136.389 24.8843 135.978 25.2852 135.463 25.648C134.966 25.9916 134.394 26.2685 133.745 26.4785C133.115 26.6694 132.446 26.7649 131.74 26.7649ZM132.628 23.3856C133.41 23.3856 134.079 23.1947 134.632 22.8128C135.205 22.431 135.654 21.906 135.978 21.2377C136.303 20.5695 136.465 19.7963 136.465 18.9181C136.465 18.0208 136.303 17.238 135.978 16.5698C135.654 15.8825 135.205 15.3574 134.632 14.9947C134.079 14.6128 133.41 14.4219 132.628 14.4219C131.883 14.4219 131.224 14.6128 130.652 14.9947C130.079 15.3574 129.63 15.8825 129.306 16.5698C129 17.238 128.847 18.0208 128.847 18.9181C128.847 19.7963 129 20.5695 129.306 21.2377C129.63 21.906 130.079 22.431 130.652 22.8128C131.224 23.1947 131.883 23.3856 132.628 23.3856Z" fill="currentColor"/>
<path
        d="M150.32 26.7649C148.678 26.7649 147.236 26.4308 145.996 25.7626C144.774 25.0943 143.819 24.1779 143.132 23.0133C142.464 21.8487 142.129 20.5218 142.129 19.0326C142.129 17.8489 142.32 16.7703 142.702 15.7966C143.084 14.8038 143.619 13.9542 144.306 13.2478C144.993 12.5414 145.805 11.9973 146.74 11.6154C147.695 11.2145 148.735 11.014 149.862 11.014C150.893 11.014 151.838 11.205 152.697 11.5868C153.575 11.9495 154.329 12.4746 154.959 13.1619C155.608 13.8301 156.105 14.6224 156.448 15.5388C156.792 16.4552 156.954 17.4576 156.935 18.5458L156.907 19.8059H144.735L144.077 17.2857H153.556L153.069 17.8012V17.1998C153.031 16.6652 152.859 16.1975 152.554 15.7966C152.267 15.3956 151.895 15.0806 151.437 14.8515C150.979 14.6033 150.473 14.4792 149.919 14.4792C149.06 14.4792 148.334 14.6511 147.742 14.9947C147.17 15.3193 146.731 15.7966 146.425 16.4266C146.139 17.0375 145.996 17.8012 145.996 18.7176C145.996 19.615 146.186 20.4073 146.568 21.0946C146.95 21.7628 147.494 22.2783 148.201 22.641C148.926 23.0038 149.776 23.1851 150.749 23.1851C151.418 23.1851 152.029 23.0801 152.582 22.8701C153.136 22.6601 153.737 22.2974 154.386 21.7819L156.305 24.5025C155.771 24.9798 155.169 25.3903 154.501 25.7339C153.833 26.0776 153.145 26.3353 152.439 26.5071C151.733 26.679 151.026 26.7649 150.32 26.7649Z" fill="currentColor"/>
<path
        d="M158.746 26.4785V11.3291H162.67L162.813 16.1975L162.126 15.1665C162.374 14.4029 162.746 13.706 163.243 13.076C163.758 12.4459 164.359 11.9495 165.047 11.5868C165.753 11.205 166.488 11.014 167.252 11.014C167.596 11.014 167.911 11.0427 168.197 11.1C168.502 11.1381 168.76 11.205 168.97 11.3004L167.882 15.7393C167.672 15.6438 167.395 15.5579 167.051 15.4816C166.727 15.3861 166.393 15.3384 166.049 15.3384C165.61 15.3384 165.19 15.4243 164.789 15.5961C164.407 15.7488 164.064 15.9779 163.758 16.2834C163.472 16.5698 163.243 16.9134 163.071 17.3144C162.918 17.7153 162.842 18.164 162.842 18.6604V26.4785H158.746Z" fill="currentColor"/>
<path
        d="M100.98 26.7649C99.3386 26.7649 97.8971 26.4308 96.6562 25.7626C95.4343 25.0943 94.4797 24.1779 93.7924 23.0133C93.1242 21.8487 92.79 20.5218 92.79 19.0326C92.79 17.8489 92.981 16.7703 93.3628 15.7966C93.7446 14.8038 94.2792 13.9542 94.9665 13.2478C95.6538 12.5414 96.4652 11.9973 97.4007 11.6154C98.3553 11.2145 99.3959 11.014 100.522 11.014C101.553 11.014 102.498 11.205 103.357 11.5868C104.236 11.9495 104.99 12.4746 105.62 13.1619C106.269 13.8301 106.765 14.6224 107.109 15.5388C107.453 16.4552 107.615 17.4576 107.596 18.5458L107.567 19.8059H95.3961L94.7374 17.2857H104.217L103.73 17.8012V17.1998C103.692 16.6652 103.52 16.1975 103.214 15.7966C102.928 15.3956 102.556 15.0806 102.097 14.8515C101.639 14.6033 101.133 14.4792 100.58 14.4792C99.7204 14.4792 98.9949 14.6511 98.4031 14.9947C97.8303 15.3193 97.3912 15.7966 97.0857 16.4266C96.7993 17.0375 96.6562 17.8012 96.6562 18.7176C96.6562 19.615 96.8471 20.4073 97.2289 21.0946C97.6108 21.7628 98.1549 22.2783 98.8613 22.641C99.5868 23.0038 100.436 23.1851 101.41 23.1851C102.078 23.1851 102.689 23.0801 103.243 22.8701C103.797 22.6601 104.398 22.2974 105.047 21.7819L106.966 24.5025C106.431 24.9798 105.83 25.3903 105.162 25.7339C104.493 26.0776 103.806 26.3353 103.1 26.5071C102.393 26.679 101.687 26.7649 100.98 26.7649Z" fill="currentColor"/>
<path
        d="M27.2537 12.031C28.3038 11.3437 29.497 11 30.8334 11C31.5398 11 32.2176 11.1146 32.8667 11.3437C33.5349 11.5537 34.1268 11.8496 34.6423 12.2315C34.9418 12.4533 35.2091 12.6913 35.4441 12.9454V5.26942H39.4821V26.5H35.6446L35.5526 24.4649C35.2816 24.786 34.9495 25.0849 34.5564 25.3616C34.06 25.7052 33.4872 26.29 32.8381 26.5C32.8494 25.3163 32.0982 23.6369 31.7212 23.0992C32.504 23.0992 33.1722 22.9083 33.7259 22.5264C34.2986 22.1446 34.7473 21.6196 35.0718 20.9514C35.3964 20.2831 35.5587 19.5099 35.5587 18.6317C35.5587 17.7344 35.3964 17.224 35.0718 16.5558C34.7473 15.8685 34.2986 15.3435 33.7259 14.9807C33.1722 14.5989 32.504 14.408 31.7212 14.408C30.9766 14.408 30.318 14.5989 29.7452 14.9807C29.1724 15.3435 28.7238 15.8685 28.3992 16.5558C28.1526 17.0953 28.0055 17.7094 27.958 18.3982L25 14.408C25.5828 13.4253 26.3341 12.633 27.2537 12.031Z" fill="currentColor"/>
<path fill-rule="evenodd" clip-rule="evenodd" d="M15.3221 9.77307C18.1905 9.77307 20.7199 11.2242 22.2163 13.4324L22.2574 13.4719C23.0942 14.6362 24.0771 15.9466 25.0783 17.2813C28.3176 21.5999 31.7482 26.1734 31.0418 26.8797C30.4148 27.1149 28.5522 25.5962 26.7512 24.1278C25.0109 22.7089 23.3282 21.337 22.8738 21.6399C22.8622 21.6477 22.8515 21.6562 22.8417 21.6654C22.816 21.7194 22.7897 21.7731 22.7629 21.8264C22.6783 22.3841 23.6884 23.8023 24.6532 25.1569C25.6261 26.5229 26.5528 27.8241 26.2643 28.1127C25.9561 28.4209 24.6076 27.4577 23.2591 26.4945C21.9106 25.5313 20.5621 24.5681 20.2539 24.8763C19.9457 25.1845 23.1049 29.307 26.2642 33.4295L26.2643 33.4296C29.4236 37.5521 32.5829 41.6746 32.2747 41.9828C31.9757 42.2819 28.4126 38.6278 24.7347 34.856L24.7347 34.856L24.7346 34.8559C20.8309 30.8525 16.7978 26.7165 16.401 27.0339C16.0158 27.3421 16.6322 28.2668 17.2487 29.1914C17.8651 30.1161 18.4816 31.0408 18.0963 31.349C17.5005 31.8257 13.9565 28.3406 11.3822 25.8091L11.3822 25.8091C10.9626 25.3964 10.5687 25.0091 10.2176 24.6685C8.25966 23.1458 7 20.7676 7 18.0952C7 13.499 10.7259 9.77307 15.3221 9.77307ZM15.1665 22.8986C17.8026 22.8986 19.9395 20.7617 19.9395 18.1256C19.9395 15.4896 17.8026 13.3527 15.1665 13.3527C12.5305 13.3527 10.3935 15.4896 10.3935 18.1256C10.3935 20.7617 12.5305 22.8986 15.1665 22.8986Z" fill="url(#paint0_linear_385_20997)"/>
<circle cx="31.4608" cy="30.6549" r="0.596623" fill="#FF0C0C"/>
<circle cx="30.2674" cy="35.4279" r="0.596623" fill="#FF0C0C"/>
<circle cx="27.8813" cy="30.6549" r="0.596623" fill="#FF0C0C"/>
<circle cx="20.7224" cy="36.6211" r="0.596623" fill="#FF0C0C"/>
<defs>
<linearGradient id="paint0_linear_385_20997" x1="31.4617" y1="41.3942" x2="11.7731" y2="11.5629" gradientUnits="userSpaceOnUse">
<stop stop-color="#FF0C0C"/>
<stop offset="1" stop-color="#FCBE1D"/>
</linearGradient>
</defs>
</svg>
