<svg width="20" height="20" viewBox="0 0 20 20" fill="none" xmlns="http://www.w3.org/2000/svg">
<path d="M16.5625 5.09375C17.0199 4.63639 17.0199 3.89486 16.5625 3.4375C16.1051 2.98014 15.3636 2.98014 14.9062 3.4375L10 8.34375L5.09375 3.4375C4.63639 2.98014 3.89486 2.98014 3.4375 3.4375C2.98014 3.89486 2.98014 4.63639 3.4375 5.09375L8.34375 10L3.4375 14.9063C2.98014 15.3636 2.98014 16.1051 3.4375 16.5625C3.89486 17.0199 4.63639 17.0199 5.09375 16.5625L10 11.6562L14.9062 16.5625C15.3636 17.0199 16.1051 17.0199 16.5625 16.5625C17.0199 16.1051 17.0199 15.3636 16.5625 14.9062L11.6562 10L16.5625 5.09375Z" fill="black"/>
</svg>
