<svg width="11" height="12" viewBox="0 0 11 12" fill="none" xmlns="http://www.w3.org/2000/svg">
<path d="M9.74897 8.6957C9.65911 8.70069 9.57425 8.70069 9.4844 8.70069C8.03179 8.70069 6.66404 8.13662 5.63573 7.10831C4.60742 6.08 4.04335 4.71225 4.04335 3.25964C4.04335 2.431 4.22805 1.63232 4.57248 0.908506C4.72723 0.589031 4.91192 0.284532 5.12657 0C4.74719 0.0399343 4.38279 0.119803 4.02837 0.229622C1.69222 0.968407 0 3.14982 0 5.73058C0 8.91534 2.58075 11.4961 5.76552 11.4961C7.52762 11.4961 9.10003 10.7074 10.1583 9.46443C10.3979 9.1799 10.6175 8.87041 10.7972 8.54095C10.4578 8.62581 10.1084 8.68072 9.74897 8.6957Z" fill="black"/>
</svg>
