<svg width="20" height="21" viewBox="0 0 20 21" fill="none" xmlns="http://www.w3.org/2000/svg">
<path d="M1.99578 14.6868C1.8564 14.6869 1.71975 14.6482 1.60113 14.575C1.48251 14.5018 1.3866 14.397 1.32416 14.2724C0.437663 12.5086 0.130272 10.5101 0.445764 8.56142C0.761256 6.61275 1.68354 4.81331 3.08129 3.41935C6.74368 -0.243543 12.7032 -0.243543 16.3656 3.41935C16.5023 3.56093 16.578 3.75056 16.5763 3.94739C16.5746 4.14422 16.4956 4.3325 16.3564 4.47169C16.2173 4.61087 16.029 4.68982 15.8321 4.69153C15.6353 4.69324 15.4457 4.61758 15.3041 4.48083C12.2258 1.40348 7.22112 1.40348 4.14277 4.48083C2.96845 5.65203 2.19361 7.16389 1.92862 8.80112C1.66363 10.4383 1.92199 12.1174 2.6669 13.5993C2.72435 13.7137 2.75158 13.8409 2.74599 13.9688C2.7404 14.0968 2.70219 14.2211 2.63498 14.3301C2.56777 14.4391 2.47381 14.5291 2.36202 14.5915C2.25023 14.6539 2.12432 14.6867 1.99628 14.6868H1.99578Z" fill="black"/>
<path d="M9.72325 19.4507C8.48978 19.453 7.26802 19.2115 6.12815 18.7401C4.98828 18.2688 3.95277 17.5769 3.0811 16.7042C3.01137 16.6345 2.95605 16.5517 2.9183 16.4606C2.88055 16.3696 2.86111 16.2719 2.86108 16.1734C2.86106 16.0748 2.88046 15.9771 2.91816 15.886C2.95587 15.7949 3.01115 15.7122 3.08085 15.6424C3.15055 15.5727 3.2333 15.5174 3.32438 15.4796C3.41545 15.4419 3.51307 15.4224 3.61167 15.4224C3.71026 15.4224 3.80789 15.4418 3.89898 15.4795C3.99008 15.5172 4.07285 15.5725 4.14258 15.6422C7.22093 18.7195 12.2256 18.7195 15.3039 15.6422C16.4782 14.471 17.2531 12.9591 17.5181 11.3219C17.7831 9.68468 17.5247 8.00558 16.7798 6.52375C16.6905 6.34576 16.6756 6.13959 16.7384 5.95062C16.8011 5.76164 16.9364 5.60533 17.1143 5.51607C17.2923 5.4268 17.4985 5.41191 17.6875 5.47465C17.8765 5.53739 18.0328 5.67263 18.122 5.85062C18.8404 7.28263 19.1805 8.87464 19.1098 10.4752C19.0391 12.0757 18.5601 13.6316 17.7183 14.9947C16.8765 16.3578 15.6999 17.4829 14.3005 18.2629C12.9011 19.0428 11.3254 19.4517 9.72325 19.4507Z" fill="black"/>
<path d="M12.6368 5.01925C12.4448 5.01828 12.2604 4.94374 12.1216 4.81095C11.9828 4.67816 11.9002 4.49724 11.8908 4.3054C11.8814 4.11356 11.9458 3.92541 12.0709 3.77966C12.196 3.63391 12.3722 3.54165 12.5633 3.52186L14.9369 3.28514L14.461 0.899434C14.4247 0.70523 14.4664 0.504538 14.5771 0.340883C14.6878 0.177227 14.8585 0.0638025 15.0523 0.0252078C15.246 -0.013387 15.4472 0.0259598 15.6121 0.134715C15.7771 0.24347 15.8925 0.412865 15.9334 0.606162L16.571 3.80562C16.5915 3.90834 16.5902 4.0142 16.5673 4.11641C16.5445 4.21862 16.5005 4.31491 16.4382 4.3991C16.3758 4.48328 16.2966 4.55349 16.2055 4.60522C16.1145 4.65695 16.0136 4.68905 15.9093 4.69945L12.7124 5.01825C12.6869 5.01825 12.6618 5.01925 12.6368 5.01925Z" fill="black"/>
<path d="M4.24885 20.1208C4.0753 20.1207 3.90715 20.0604 3.77302 19.9503C3.63889 19.8402 3.54707 19.6869 3.51317 19.5167L2.87558 16.3198C2.85509 16.217 2.85634 16.1111 2.87924 16.0089C2.90214 15.9066 2.94619 15.8103 3.00856 15.7261C3.07092 15.642 3.15022 15.5717 3.24135 15.52C3.33248 15.4683 3.43343 15.4363 3.53769 15.426L6.73465 15.1072C6.93275 15.0872 7.13065 15.1468 7.2848 15.2729C7.43896 15.3989 7.53675 15.5809 7.55666 15.779C7.57657 15.9771 7.51697 16.175 7.39097 16.3292C7.26497 16.4833 7.08289 16.5811 6.88479 16.601L4.51109 16.8378L4.98653 19.2235C5.00824 19.3325 5.00548 19.4449 4.97844 19.5527C4.9514 19.6605 4.90077 19.761 4.83019 19.8468C4.75961 19.9327 4.67085 20.0018 4.57032 20.0492C4.46979 20.0965 4.35999 20.121 4.24885 20.1208Z" fill="black"/>
</svg>
