<svg width="22" height="22" viewBox="0 0 22 22" fill="none" xmlns="http://www.w3.org/2000/svg">
    <path
            d="M11.6316 1.661L14.0991 6.899C14.2019 7.1165 14.3999 7.26725 14.6294 7.3025L20.1471 8.1425C20.7246 8.23025 20.9549 8.9735 20.5371 9.40025L16.5441 13.4773C16.3784 13.6468 16.3026 13.8905 16.3416 14.1298L17.2844 19.8868C17.3826 20.489 16.7796 20.9488 16.2629 20.6638L11.3279 17.9458C11.1231 17.8325 10.8779 17.8325 10.6731 17.9458L5.73813 20.6638C5.22213 20.948 4.61838 20.489 4.71663 19.8868L5.65938 14.1298C5.69838 13.8905 5.62263 13.6468 5.45688 13.4773L1.46388 9.40025C1.04613 8.9735 1.27638 8.23025 1.85388 8.1425L7.37163 7.3025C7.60113 7.26725 7.79913 7.1165 7.90188 6.899L10.3694 1.661C10.6274 1.11275 11.3729 1.11275 11.6316 1.661Z" stroke="currentColor" stroke-width="2" stroke-miterlimit="10" stroke-linecap="round" stroke-linejoin="round"/>
</svg>
