<svg width="20" height="20" viewBox="0 0 20 20" fill="none" xmlns="http://www.w3.org/2000/svg">
<path d="M10 15C12.7614 15 15 12.7614 15 10C15 7.23858 12.7614 5 10 5C7.23858 5 5 7.23858 5 10C5 12.7614 7.23858 15 10 15Z" fill="white"/>
<path fill-rule="evenodd" clip-rule="evenodd" d="M10.1613 0C10.6423 0 11.0322 0.389947 11.0322 0.87097V1.74194C11.0322 2.22296 10.6423 2.61291 10.1613 2.61291C9.68023 2.61291 9.29028 2.22296 9.29028 1.74194V0.87097C9.29028 0.389947 9.68023 0 10.1613 0Z" fill="white"/>
<path fill-rule="evenodd" clip-rule="evenodd" d="M10.1613 17.3871C10.6423 17.3871 11.0322 17.777 11.0322 18.2581V19.129C11.0322 19.61 10.6423 20 10.1613 20C9.68023 20 9.29028 19.61 9.29028 19.129V18.2581C9.29028 17.777 9.68023 17.3871 10.1613 17.3871Z" fill="white"/>
<path fill-rule="evenodd" clip-rule="evenodd" d="M17.387 10.1613C17.387 9.68029 17.7769 9.29034 18.2579 9.29034H19.1289C19.6099 9.29034 19.9999 9.68029 19.9999 10.1613C19.9999 10.6423 19.6099 11.0323 19.1289 11.0323H18.2579C17.7769 11.0323 17.387 10.6423 17.387 10.1613Z" fill="white"/>
<path fill-rule="evenodd" clip-rule="evenodd" d="M0 10.1613C0 9.68029 0.389947 9.29034 0.87097 9.29034H1.74194C2.22296 9.29034 2.61291 9.68029 2.61291 10.1613C2.61291 10.6423 2.22296 11.0323 1.74194 11.0323H0.87097C0.389947 11.0323 0 10.6423 0 10.1613Z" fill="white"/>
<path fill-rule="evenodd" clip-rule="evenodd" d="M17.3097 2.97684C17.6498 3.31698 17.6498 3.86845 17.3097 4.20858L16.4387 5.07955C16.0986 5.41969 15.5471 5.41969 15.207 5.07955C14.8669 4.73942 14.8669 4.18795 15.207 3.84781L16.078 2.97684C16.4181 2.63671 16.9696 2.63671 17.3097 2.97684Z" fill="white"/>
<path fill-rule="evenodd" clip-rule="evenodd" d="M5.07973 14.6551C5.41987 14.9953 5.41987 15.5467 5.07973 15.8869L4.20876 16.7578C3.86863 17.098 3.31716 17.098 2.97703 16.7578C2.63689 16.4177 2.63689 15.8662 2.97703 15.5261L3.848 14.6551C4.18813 14.315 4.7396 14.315 5.07973 14.6551Z" fill="white"/>
<path fill-rule="evenodd" clip-rule="evenodd" d="M14.7712 15.6423C15.1113 15.3022 15.6628 15.3022 16.003 15.6423L16.8739 16.5133C17.2141 16.8534 17.2141 17.4049 16.8739 17.745C16.5338 18.0852 15.9823 18.0852 15.6422 17.745L14.7712 16.874C14.4311 16.5339 14.4311 15.9824 14.7712 15.6423Z" fill="white"/>
<path fill-rule="evenodd" clip-rule="evenodd" d="M2.97703 2.97684C3.31716 2.63671 3.86863 2.63671 4.20876 2.97684L5.07973 3.84781C5.41987 4.18795 5.41987 4.73942 5.07973 5.07955C4.7396 5.41969 4.18813 5.41969 3.848 5.07955L2.97703 4.20858C2.63689 3.86845 2.63689 3.31698 2.97703 2.97684Z" fill="white"/>
</svg>
