<svg width="10" height="10" viewBox="0 0 10 10" fill="none" xmlns="http://www.w3.org/2000/svg">
<path fill-rule="evenodd" clip-rule="evenodd" d="M4.54636 0.0260821C2.44237 0.211174 0.66225 1.73315 0.140099 3.79336C-2.86195e-05 4.34626 -0.0397969 5.12255 0.042446 5.70009C0.340597 7.79407 1.93036 9.47751 4.00891 9.90031C6.5965 10.4267 9.17687 8.81815 9.84026 6.26529C9.98922 5.69213 10.0389 4.97017 9.96845 4.40401C9.84838 3.43935 9.4544 2.53233 8.83597 1.79684C8.39242 1.26933 7.85991 0.849362 7.24966 0.545773C6.6263 0.235651 6.08454 0.0827813 5.39933 0.0236566C5.02767 -0.00840024 4.93557 -0.00815236 4.54636 0.0260821ZM5.31306 1.56633C5.3686 1.60384 5.44802 1.68309 5.48953 1.74241L5.56504 1.85029L5.57274 3.1275L5.58045 4.40473H6.48597C7.54273 4.40473 7.6031 4.41424 7.78297 4.609C7.97858 4.8208 7.99974 5.07767 7.84199 5.32594C7.78115 5.42167 7.72268 5.4723 7.61531 5.52219L7.4706 5.58942L6.17863 5.5897C5.07266 5.58995 4.87188 5.5838 4.78398 5.54717C4.65412 5.49303 4.5394 5.3849 4.47102 5.25218C4.41979 5.15278 4.41797 5.08305 4.42521 3.49732L4.43275 1.84599L4.5156 1.7286C4.63979 1.55266 4.80298 1.47636 5.02952 1.4884C5.16722 1.49571 5.23687 1.51487 5.31306 1.56633Z" fill="black"/>
</svg>
